<svg width="1183" height="28" viewBox="0 0 1183 28" fill="none" xmlns="http://www.w3.org/2000/svg">
<path d="M0 18.1935L11.0466 18.4385L11.362 16.2936L18.3082 17.5222L24.7848 16.5891L31.8851 16.7453L35.8314 16.834L43.5696 18.0838L50.5298 17.1633L52.983 14.7567L59.5367 17.2098L63.4689 14.9889L70.5903 17.4547L78.8192 15.3309L85.9195 15.4871L86.1438 13.9544L91.1975 11.9151L95.9358 12.0207L105.405 12.2318L109.078 14.1571L114.083 12.4218L118.821 12.5273L128.431 12.7427L129.23 15.7869L137.767 15.9769L146.718 14.3302L152.038 19.3631L163.554 13.5196L173.024 13.7307L181.708 13.9249L195.124 14.2247L200.128 12.4893L199.357 17.6996L211.42 16.4287L215.976 17.7587L224.142 16.0951L232.077 15.9642L235.981 16.3569L241.686 15.2549L250.42 16.7116L254.843 17.7334L259.322 15.6814L266.429 15.8376L269.268 18.0542L280.637 16.1542L291.936 16.4118C291.936 16.4118 301.419 12.6202 305.05 14.8538C308.681 17.0873 317.849 14.2289 317.849 14.2289L329.912 12.958L341.8 12.9158L341.484 15.0607L350.898 12.9876L354.066 13.7729L356.975 15.5293L364.867 15.7067L369.311 17.8051L375.444 19.1731L380.428 22.9731L388.32 23.1504L404.897 23.5178L411.773 25.2067L428.848 22.2047L438.612 25.802C438.612 25.802 462.948 20.1949 475.656 20.7818C488.363 21.3729 498.394 23.1336 498.394 23.1336L504.464 19.5784L510.19 14.7862L521.111 14.1065L538.22 18.1935L547.178 14.1824L555.75 16.3527L564.274 15.0607L587.544 18.3456L590.993 21.8036L594.575 24.3411L606.413 24.6029L606.049 27.056L615.967 27.2755L622.808 27.7358L629.691 27.8878L639.56 25.3418L643.156 22.6564L650.824 23.1336L659.964 21.1829L667.072 21.3391L667.296 19.8065L679.134 20.0682L688.968 17.8262L689.284 15.6814L701.123 15.9431L701.732 17.4293L709.337 14.174L717.23 18.0331L723.987 14.9087L728.157 13.4647L727.653 16.8804L733.176 17.0029L741.86 17.1971L753.699 17.4589L762.888 14.2373L771.573 14.4316L777.888 14.5709L791.311 13.0256L814.427 15.3773L814.112 17.5222L821.528 17.6869L842.773 24.6916L854.976 22.5045L859.329 19.836L872.744 20.1358L878.022 16.5638L889.707 12.5189L904.7 12.8524L908.94 16.3274C908.94 16.3274 907.882 18.1471 911.828 18.2358C915.774 18.3244 926.821 18.5693 926.821 18.5693L934.44 20.5833L944.477 22.344L964.432 21.2504L976.026 13.4435L981.458 14.1782L993.409 19.0549L997.355 19.1436L1004.41 19.608L1011.6 19.152L1019.5 19.3293L1025.68 20.3891L1034.13 22.116L1042.74 21.0774L1051.77 20.6635L1060.92 19.3378L1060.56 21.7909L1069.25 21.9851L1076.71 19.6924L1076.94 18.1598L1085.2 15.884L1089.27 15.0522L1096.47 14.5962L1102.51 16.5765L1106.97 18.5187L1112.97 19.1689L1117.45 16.1204L1128.55 15.3013L1134.98 15.77L1145.45 15.3815L1176.27 13.2325L1182.93 8.22066L1168.15 9.12001L1162.47 10.07L1163.87 8.56267L1157.19 8.25867L1154.71 8.97222L1147.21 8.80333L1144.65 7.36357L1131.39 5.99133L1126.26 5.87733L1121.76 6.85267L1113.62 5.59446L1106.68 4.3658L1102.42 3.65643L1095.72 3.50867L1093.23 4.22222L1090.84 4.32356L1079.45 3.76199L1076.38 3.07802L1067.69 2.88377L1063.35 2.78668L1060.65 5.03289L1056.63 5.40444L1047.16 8.87935L1039.4 7.78578L1036.09 8.78645L1027.78 8.75688L1025.81 8.71468L1022.25 8.63444L1014.91 7.39311L1009.46 6.81044L1006.79 6.1349L1002.58 5.11732L999.542 4.28133L1000.21 2.45312L996.023 1.28356C993.822 2.774 992.617 2.90066 992.547 3.36088C992.477 3.8211 993.57 4.45866 992.364 4.58533C991.159 4.71199 988.327 5.10888 988.327 5.10888L981.942 5.42979L977.995 5.34111L973.958 5.86467L973.362 7.23691C970.923 7.64224 966.977 11.2396 966.977 11.2396L962.33 10.5218L957.22 10.2558L950.232 9.33111C950.232 9.33111 948.262 9.2889 947.12 8.95534C945.984 8.62179 941.106 9.87154 941.106 9.87154L938.344 9.81243L928.853 9.75332L923.646 7.48601L917.583 5.66201C917.583 5.66201 912.08 5.38757 909.298 5.47624C906.515 5.56913 897.76 5.83513 897.76 5.83513L893.373 6.04622L889.034 5.94913L885.417 6.32911L880.363 8.36845L874.356 8.84978C874.356 8.84978 871.111 9.39023 869.485 9.66467C867.859 9.93489 850.609 8.34732 850.609 8.34732L845.457 8.38533L842.303 8.31356L840.586 9.19601L837.362 9.58446L833.878 9.04399L830.373 8.65979L823.504 9.58446L819.888 9.96445L815.282 9.55489L794.353 4.94421C794.353 4.94421 793.463 2.92602 785.255 4.89357C777.047 6.86113 773.052 7.08067 773.052 7.08067L769.218 6.22777L762.201 5.45511L750.363 5.19335L746.395 5.25668L741.173 5.75488L736.723 6.42624L733.519 6.66268L726.924 5.74644L724.183 5.5311L720.195 5.75066L714.209 6.08001L706.316 2.22089L697.772 1.10623L696.847 2.00977C696.847 2.00977 693.924 3.0231 691.422 3.88866C688.919 4.75421 682.443 5.68733 682.443 5.68733L672.833 6.39666L662.943 6.32911L660.623 5.97023L653.425 5.50156L649.948 5.88577L645.462 7.01734L642.504 8.02645L640.023 8.74L637.338 9.60134L632.334 9.95179L627.077 10.602L618.315 11.2945L610.374 11.1171L604.451 10.9862L601.794 10.1924L595.086 10.0447L587.874 10.6189L580.886 12.3416L576.918 12.4091L569.047 12.0798L565.101 11.9911L555.554 11.78L550.893 11.6744L545.166 9.24668L536.349 9.97289L530.776 10.1587L525.218 9.88002L516.989 9.69846L510.765 10.792L499.634 11.9278L495.134 11.8265L492.064 11.4507L481.172 7.14822L471.205 10.4711L461.742 9.33955L458.231 8.64713L449.006 7.98L440.651 8.25445L427.523 11.3451L419.785 10.0953L420.03 8.41068L418.082 8.21222L409.769 8.18268L407.413 9.11579L402.241 9.31001L401.273 10.5175L397.18 8.73578L390.36 9.35224L383.21 9.5L370.117 9.66889L361.573 8.55423L359.575 8.66401L349.923 11.5562L342.255 9.85044L324.213 8.68089C324.213 8.68089 323.099 8.19533 319.475 8.57533C315.858 8.95533 301.076 9.85888 301.076 9.85888L294.2 11.8518L288.284 11.7209L283.966 11.4718C283.966 11.4718 279.067 11.9151 277.931 11.5858C276.796 11.2522 273.768 10.2642 271.777 10.374C269.78 10.4838 267.018 10.4205 267.018 10.4205L248.689 10.07L241.238 7.71823L230.1 8.08556L225.081 7.20734L221.668 6.1771L217.855 5.20601L212.198 5.96601L204.145 6.89912L190.217 7.35935C190.217 7.35935 186.804 6.3629 185.921 6.95823C185.045 7.55357 182.255 7.64646 178.617 8.17846C174.972 8.71468 176.157 8.74002 173.304 9.28891C170.451 9.84202 167.248 10.0784 167.248 10.0784C167.248 10.0784 166.042 10.2051 164.045 10.3149C162.047 10.4247 155.409 9.81669 155.409 9.81669L152.669 9.60134L148.092 4.74156L141.776 4.60224L128.08 3.52977C128.08 3.52977 115.057 3.24267 113.872 3.21312C112.688 3.18778 96.7699 3.75355 96.7699 3.75355L85.5481 1.96757L73.1697 0L70.7305 0.405336C70.7305 0.405336 64.2609 1.33843 57.7633 2.42354C51.2658 3.50866 51.6863 3.36511 44.8663 3.98156C38.0463 4.598 34.8641 4.68245 34.8641 4.68245L26.467 5.26512L13.591 6.67112L8.58634 8.40643L5.10975 10.4796L0 18.1935Z" fill="white"/>
</svg>
